<svg width="110" height="110" viewBox="0 0 110 110" fill="none" xmlns="http://www.w3.org/2000/svg">
<g filter="url(#filter0_b_20230_1548)">
<path d="M0 30C0 13.4315 13.4315 0 30 0H100C105.523 0 110 4.47715 110 10V100C110 105.523 105.523 110 100 110H10C4.47715 110 0 105.523 0 100V30Z" fill="#0F0F0F"/>
<path d="M0 30C0 13.4315 13.4315 0 30 0H100C105.523 0 110 4.47715 110 10V100C110 105.523 105.523 110 100 110H10C4.47715 110 0 105.523 0 100V30Z" fill="black" fill-opacity="0.25"/>
<path d="M0 30C0 13.4315 13.4315 0 30 0H100C105.523 0 110 4.47715 110 10V100C110 105.523 105.523 110 100 110H10C4.47715 110 0 105.523 0 100V30Z" fill="#1D78E3" fill-opacity="0.55"/>
<path d="M30 1H100C104.971 1 109 5.02944 109 10V100C109 104.971 104.971 109 100 109H10C5.02943 109 1 104.971 1 100V30C1 13.9837 13.9837 1 30 1Z" stroke="black" stroke-opacity="0.25" stroke-width="2"/>
<path d="M30 1H100C104.971 1 109 5.02944 109 10V100C109 104.971 104.971 109 100 109H10C5.02943 109 1 104.971 1 100V30C1 13.9837 13.9837 1 30 1Z" stroke="#1D78E3" stroke-opacity="0.45" stroke-width="2"/>
<path d="M30 1H100C104.971 1 109 5.02944 109 10V100C109 104.971 104.971 109 100 109H10C5.02943 109 1 104.971 1 100V30C1 13.9837 13.9837 1 30 1Z" stroke="white" stroke-opacity="0.2" stroke-width="2"/>
</g>
<defs>
<filter id="filter0_b_20230_1548" x="-45" y="-45" width="200" height="200" filterUnits="userSpaceOnUse" color-interpolation-filters="sRGB">
<feFlood flood-opacity="0" result="BackgroundImageFix"/>
<feGaussianBlur in="BackgroundImageFix" stdDeviation="22.5"/>
<feComposite in2="SourceAlpha" operator="in" result="effect1_backgroundBlur_20230_1548"/>
<feBlend mode="normal" in="SourceGraphic" in2="effect1_backgroundBlur_20230_1548" result="shape"/>
</filter>
</defs>
</svg>
